<svg xmlns="http://www.w3.org/2000/svg" viewBox="0 0 862.0999999999999 650" overflow="visible"><g transform="translate(40, 400)"><path fill="#000" stroke="#000" d="M89.75-88.15Q88.40-89.50 88.40-91.30Q88.40-93.10 89.75-94.45Q91.10-95.80 92.90-95.80L92.90-95.80L263-95.80Q264.80-95.80 266.15-94.45Q267.50-93.10 267.50-91.30Q267.50-89.50 266.15-88.15Q264.80-86.80 263-86.80L263-86.80L92.90-86.80Q91.10-86.80 89.75-88.15ZM163.10-169.90Q160.40-166.30 156.80-169Q153.20-171.70 155.90-175.30L155.90-175.30Q158-178 163.40-186.10Q168.80-194.20 174.95-206.95Q181.10-219.70 179.60-224.50L179.60-224.50Q177.50-230.50 156.80-223.30L156.80-223.30Q136.70-216.10 112.40-193Q88.10-169.90 66.95-139.30Q45.80-108.70 29.30-76.60Q12.80-44.50 5.60-15.70Q-1.60 13.10 4.10 29L4.10 29Q14.30 56.60 64.40 38.30L64.40 38.30Q83.90 31.10 102.35 20Q120.80 8.90 134.60-2.65Q148.40-14.20 161.30-28Q174.20-41.80 182.30-52.15Q190.40-62.50 197.30-73.15Q204.20-83.80 206.30-87.55Q208.40-91.30 209.60-93.40L209.60-93.40Q210.20-94.90 212-95.50Q213.80-96.10 215.60-95.20L215.60-95.20Q219.20-93.40 217.70-89.50L217.70-89.50Q202.70-60.40 174.50-28.90L174.50-28.90Q126.20 25.40 67.40 46.70L67.40 46.70Q37.70 57.20 19.85 53.30Q2 49.40-4.30 32L-4.30 32Q-8.80 20.60-7 3.95Q-5.20-12.70 0.35-31.90Q5.90-51.10 16.10-72.10Q26.30-93.10 38.30-113.50Q50.30-133.90 65-153.25Q79.70-172.60 94.40-188.20Q109.10-203.80 124.70-215.35Q140.30-226.90 153.80-231.70L153.80-231.70Q182.90-242.20 188-227.50L188-227.50Q189.80-222.10 188-214.15Q186.20-206.20 182.15-198.70Q178.10-191.20 173.75-184.60Q169.40-178 166.40-173.80L166.40-173.80L163.10-169.90ZM264.80-86.50L264.80-86.50Q259.70-85.30 252.05-73.90Q244.40-62.50 242.90-52.30L242.90-52.30Q241.40-42.70 246.20-42.10L246.20-42.10Q247.70-41.80 249.50-42.10L249.50-42.10Q257.90-43.90 264.80-59.80Q271.70-75.70 269.60-85.60L269.60-85.60Q266.90-85.90 264.80-86.50ZM275.30-94L275.30-94Q288.20-92.80 301.70-95.50L301.70-95.50Q303.50-96.10 305.15-95.05Q306.80-94 307.10-92.20Q307.40-90.40 306.35-88.75Q305.30-87.10 303.50-86.80L303.50-86.80Q291.20-84.10 278.90-84.70L278.90-84.70Q279.50-76 276.50-64.60Q273.50-53.20 266.15-43.60Q258.80-34 249.20-33.10L249.20-33.10Q247.10-32.80 245-33.10L245-33.10Q237.80-34.30 235.25-40.15Q232.70-46 233.90-53.50L233.90-53.50Q235.70-65.80 243.80-78.55Q251.90-91.30 260.90-94.90L260.90-94.90Q263-97 267.65-97.30Q272.30-97.60 275.30-94ZM334.70-88.30L334.70-88.30Q334.70-88 334.70-88L334.70-88Q326.90-70 321.50-49.60Q316.10-29.20 316.40-21.40L316.40-21.40Q323.60-25.60 338.75-43.75Q353.90-61.90 365.75-77.65Q377.60-93.40 377.60-93.70L377.60-93.70Q378.80-95.80 381.20-95.80L381.20-95.80Q383.00-95.80 384.35-94.45Q385.70-93.10 385.70-91.30L385.70-91.30Q385.70-89.20 371.90-69.70Q358.10-50.20 340.40-30.70Q322.70-11.20 314.60-11.50L314.60-11.50Q307.10-11.80 307.40-23.80L307.40-23.80Q307.70-34.30 312.50-51.85Q317.30-69.40 324.20-86.50L324.20-86.50Q313.70-85.60 302.30-86.20L302.30-86.20Q300.50-86.20 299.30-87.70Q298.10-89.20 298.10-91Q298.10-92.80 299.60-94Q301.10-95.20 302.90-95.20L302.90-95.20Q316.40-94.30 328.10-96.40L328.10-96.40Q328.40-96.40 328.40-96.40L328.40-96.40Q328.70-97 329.00-97.60L329.00-97.60Q336.50-113.20 343.85-122.05Q351.20-130.90 359.90-128.80L359.90-128.80Q366.20-127 369.20-122.50Q372.20-118 370.70-112.30L370.70-112.30Q368.30-104.80 359.30-98.50Q350.30-92.20 336.50-88.90L336.50-88.90Q335.60-88.60 334.70-88.30ZM339.80-99.10L339.80-99.10Q349.40-102.10 355.10-106.60Q360.80-111.10 362.00-114.70L362.00-114.70Q362.90-118.30 357.50-119.80L357.50-119.80Q356.30-120.10 353.75-118.15Q351.20-116.20 347.30-111.25Q343.40-106.30 339.80-99.10ZM392.60-92.80L392.60-92.80Q403.70-113.50 416.60-138.85Q429.50-164.20 437-179.35Q444.50-194.50 444.50-194.50L444.50-194.50Q445.10-196 447.05-196.60Q449-197.20 450.80-196.30L450.80-196.30Q454.10-194.20 452.60-190.60L452.60-190.60Q426.50-125.80 409.10-76.90L409.10-76.90Q398-45.70 395.30-32.50L395.30-32.50Q400.70-38.20 410.75-54.40Q420.80-70.60 429.05-83.20Q437.30-95.80 439.70-95.80L439.70-95.80Q441.50-95.80 442.85-94.45Q444.20-93.10 444.20-91.30L444.20-91.30Q444.20-90.10 443.90-89.20L443.90-89.20Q443.60-89.20 443.30-88.30L443.30-88.30Q409.40-25.90 393.50-19.90L393.50-19.90Q392.30-19.60 391.10-19.60L391.10-19.60Q385.70-19.30 385.40-25.90L385.40-25.90Q384.80-34.90 399.50-76.60L399.50-76.60Q397.10-75.70 394.70-77.50L394.70-77.50Q392.60-73.60 388.55-66.10Q384.50-58.60 382.25-54.55Q380-50.50 376.70-44.50Q373.40-38.50 371-35.35Q368.60-32.20 365.90-28.90Q363.20-25.60 360.95-24.40Q358.70-23.20 356.60-23.50L356.60-23.50Q348.80-25 351.20-37.90L351.20-37.90Q353.60-50.80 362.75-70.30Q371.90-89.80 377.60-94L377.60-94Q384.20-98.80 392.60-92.80ZM401.60-82.90L401.60-82.90Q405.80-94.60 410.90-108.40L410.90-108.40Q404.90-96.70 399.20-86.20L399.20-86.20Q400.70-84.40 401.60-82.90ZM388.40-84.70L388.40-84.70Q384.50-87.70 383-86.80L383-86.80Q380.30-84.40 371.45-65.95Q362.60-47.50 360.20-37L360.20-37Q369.20-49.30 388.40-84.70ZM440.60-86.50L440.60-86.50Q435.50-85.30 427.85-73.90Q420.20-62.50 418.70-52.30L418.70-52.30Q417.20-42.70 422-42.10L422-42.10Q423.50-41.80 425.30-42.10L425.30-42.10Q433.70-43.90 440.60-59.80Q447.50-75.70 445.40-85.60L445.40-85.60Q442.70-85.90 440.60-86.50ZM451.10-94L451.10-94Q464-92.80 477.50-95.50L477.50-95.50Q479.30-96.10 480.95-95.05Q482.60-94 482.90-92.20Q483.20-90.40 482.15-88.75Q481.10-87.10 479.30-86.80L479.30-86.80Q467-84.10 454.70-84.70L454.70-84.70Q455.30-76 452.30-64.60Q449.30-53.20 441.95-43.60Q434.60-34 425-33.10L425-33.10Q422.90-32.80 420.80-33.10L420.80-33.10Q413.60-34.30 411.05-40.15Q408.50-46 409.70-53.50L409.70-53.50Q411.50-65.80 419.60-78.55Q427.70-91.30 436.70-94.90L436.70-94.90Q438.80-97 443.45-97.30Q448.10-97.60 451.10-94ZM476.30-94.90Q478.10-95.80 479.75-95.05Q481.40-94.30 482.30-92.65Q483.20-91 482.30-89.20L482.30-89.20L468.20-51.40Q469.10-52.30 470.90-54.40L470.90-54.40Q478.10-64 482.45-69.10Q486.80-74.20 493.40-81.40Q500-88.60 505.10-92.05Q510.20-95.50 514.40-95.50L514.40-95.50Q529.10-95.50 512-52.60L512-52.60Q506.90-39.70 506.60-38.50L506.60-38.50Q511.70-43.90 521-58.75Q530.30-73.60 537.80-84.55Q545.30-95.50 548-95.50L548-95.50Q549.80-95.50 551.15-94.15Q552.50-92.80 552.50-91L552.50-91Q552.50-89.80 551.90-88.60L551.90-88.60Q551.60-88.60 551.30-87.70L551.30-87.70Q516.20-26.80 503-25L503-25Q500-24.70 498.20-26.65Q496.40-28.60 496.10-30.70L496.10-30.70Q495.50-36.70 503.75-58.60Q512-80.50 512.60-85.60L512.60-85.60Q498.20-76.90 457.10-21.70L457.10-21.70Q455.30-19 452.30-19.90L452.30-19.90Q450.50-20.50 449.60-22.15Q448.70-23.80 449.30-25.90L449.30-25.90L473.90-92.50Q474.50-94 476.30-94.90ZM711.35-177.40Q710.60-175.60 708.80-175Q707.00-174.40 705.35-175.15Q703.70-175.90 703.10-177.70L703.10-177.70Q700.10-184.90 701.00-194.80L701.00-194.80Q701.60-205 706.55-212.80Q711.50-220.60 720.80-219.70L720.80-219.70Q722.30-219.70 723.80-218.50L723.80-218.50Q731.30-213.10 717.95-158.50Q704.60-103.90 681.95-43.60Q659.30 16.70 643.70 37.10L643.70 37.10Q702.50 34.40 893.60 28.10L893.60 28.10Q895.70 28.10 897.05 29.30Q898.40 30.50 898.40 32.45Q898.40 34.40 897.20 35.75Q896 37.10 894.20 37.10L894.20 37.10Q682.10 44.30 635.90 46.40L635.90 46.40Q633.80 46.40 632.00 46.70L632.00 46.70Q630.50 47 629.00 47L629.00 47Q626.00 50 623.00 44.60L623.00 44.60Q621.50 42.50 622.25 41.15Q623.00 39.80 623.75 39.05Q624.50 38.30 626.30 38Q628.10 37.70 628.85 37.70Q629.60 37.70 629.90 37.70L629.90 37.70Q631.10 37.10 632.30 36.20L632.30 36.20Q650.30 20.60 683.00-76.30L683.00-76.30Q710.60-158.80 716.90-199.90L716.90-199.90Q717.80-206.80 717.80-210.40L717.80-210.40Q713.00-208.90 710.75-198.70Q708.50-188.50 711.50-180.70L711.50-180.70Q712.10-179.20 711.35-177.40ZM756.65-126.70Q755.00-127.60 754.40-129.25Q753.80-130.90 754.70-132.55Q755.60-134.20 757.40-134.80L757.40-134.80L762.50-136.30Q764.30-136.90 765.95-136Q767.60-135.10 768.20-133.30Q768.80-131.50 767.90-129.85Q767.00-128.20 765.20-127.60L765.20-127.60L760.10-126.10Q758.30-125.80 756.65-126.70ZM746.30-94.75Q748.10-95.50 749.75-94.90Q751.40-94.30 752.15-92.50Q752.90-90.70 752.30-88.90L752.30-88.90Q734.60-45.70 729.20-25.30L729.20-25.30Q735.50-32.50 748.55-50.80Q761.60-69.10 771.65-82.45Q781.70-95.80 784.40-95.80L784.40-95.80Q786.20-95.80 787.55-94.45Q788.90-93.10 788.90-91.30L788.90-91.30Q788.90-89.80 788.00-88.60L788.00-88.60Q788.00-88.60 786.05-85.60Q784.10-82.60 781.10-78.25Q778.10-73.90 773.90-67.90Q769.70-61.90 765.20-55.75Q760.70-49.60 755.90-43.15Q751.10-36.70 746.45-31Q741.80-25.30 737.75-20.80Q733.70-16.30 730.25-13.60Q726.80-10.90 725.00-10.60L725.00-10.60Q722.00-10.30 720.50-12.25Q719.00-14.20 718.70-16L718.70-16Q717.50-27.70 743.90-92.50L743.90-92.50Q744.50-94 746.30-94.75Z"/></g></svg>