<?xml version="1.0" encoding="UTF-8"?><svg id="Layer_1" xmlns="http://www.w3.org/2000/svg" viewBox="0 0 906.91 291.43"><defs><style>.cls-1{fill:#717171;stroke:#717171;}</style></defs><g transform="translate(40, 400)"><path class="cls-1" d="M97.76,148.42c-.9-.9-1.35-1.95-1.35-3.15s.45-2.25,1.35-3.15,1.95-1.35,3.15-1.35h170.1c1.2,0,2.25,.45,3.15,1.35,.9,.9,1.35,1.95,1.35,3.15s-.45,2.25-1.35,3.15c-.9,.9-1.95,1.35-3.15,1.35H100.91c-1.2,0-2.25-.45-3.15-1.35Zm73.35-81.75c-1.8,2.4-3.9,2.7-6.3,.9s-2.7-3.9-.9-6.3h0c1.4-1.8,3.9-5.4,7.5-10.8,3.6-5.4,7.45-12.35,11.55-20.85s5.65-14.35,4.65-17.55h0c-1.4-4-9-3.6-22.8,1.2h0c-13.4,4.8-28.2,14.9-44.4,30.3-16.2,15.4-31.35,33.3-45.45,53.7-14.1,20.4-26.65,41.3-37.65,62.7-11,21.4-18.9,41.7-23.7,60.9-4.8,19.2-5.3,34.1-1.5,44.7h0c6.8,18.4,26.9,21.5,60.3,9.3h0c13-4.8,25.65-10.9,37.95-18.3,12.3-7.4,23.05-14.95,32.25-22.65,9.2-7.7,18.1-16.15,26.7-25.35,8.6-9.2,15.6-17.25,21-24.15,5.4-6.9,10.4-13.9,15-21,4.6-7.1,7.6-11.9,9-14.4,1.4-2.5,2.5-4.45,3.3-5.85h0c.4-1,1.2-1.7,2.4-2.1s2.4-.3,3.6,.3h0c2.4,1.2,3.1,3.1,2.1,5.7h0c-10,19.4-24.4,39.6-43.2,60.6h0c-32.2,36.2-67.9,61.4-107.1,75.6h0c-19.8,7-35.65,9.2-47.55,6.6-11.9-2.6-19.95-9.7-24.15-21.3h0c-3-7.6-3.9-16.95-2.7-28.05,1.2-11.1,3.65-23.05,7.35-35.85,3.7-12.8,8.95-26.2,15.75-40.2,6.8-14,14.2-27.8,22.2-41.4,8-13.6,16.9-26.85,26.7-39.75,9.8-12.9,19.6-24.55,29.4-34.95s19.9-19.45,30.3-27.15c10.4-7.7,20.1-13.15,29.1-16.35h0c19.4-7,30.8-5.6,34.2,4.2h0c1.2,3.6,1.2,8.05,0,13.35s-3.15,10.45-5.85,15.45-5.5,9.7-8.4,14.1c-2.9,4.4-5.35,8-7.35,10.8h0l-3.3,3.9Zm101.7,83.4h0c-3.4,.8-7.65,5-12.75,12.6-5.1,7.6-8.15,14.8-9.15,21.6h0c-1,6.4,.1,9.8,3.3,10.2h0c1,.2,2.1,.2,3.3,0h0c5.6-1.2,10.7-7.1,15.3-17.7,4.6-10.6,6.2-19.2,4.8-25.8h0c-1.8-.2-3.4-.5-4.8-.9Zm10.5-7.5h0c8.6,.8,17.4,.3,26.4-1.5h0c1.2-.4,2.35-.25,3.45,.45,1.1,.7,1.75,1.65,1.95,2.85,.2,1.2-.05,2.35-.75,3.45s-1.65,1.75-2.85,1.95h0c-8.2,1.8-16.4,2.5-24.6,2.1h0c.4,5.8-.4,12.5-2.4,20.1-2,7.6-5.45,14.6-10.35,21-4.9,6.4-10.55,9.9-16.95,10.5h0c-1.4,.2-2.8,.2-4.2,0h0c-4.8-.8-8.05-3.15-9.75-7.05-1.7-3.9-2.15-8.35-1.35-13.35h0c1.2-8.2,4.5-16.55,9.9-25.05,5.4-8.5,11.1-13.95,17.1-16.35h0c1.4-1.4,3.65-2.2,6.75-2.4,3.1-.2,5.65,.9,7.65,3.3Zm59.4,5.7h0v.3h0c-5.2,12-9.6,24.8-13.2,38.4-3.6,13.6-5.3,23-5.1,28.2h0c4.8-2.8,12.25-10.25,22.35-22.35,10.1-12.1,19.1-23.4,27-33.9s11.85-15.85,11.85-16.05h0c.8-1.4,2-2.1,3.6-2.1h0c1.2,0,2.25,.45,3.15,1.35,.9,.9,1.35,1.95,1.35,3.15h0c0,1.4-4.6,8.6-13.8,21.6-9.2,13-19.7,26-31.5,39-11.8,13-20.4,19.4-25.8,19.2h0c-5-.2-7.4-4.3-7.2-12.3h0c.2-7,1.9-16.35,5.1-28.05s7.1-23.25,11.7-34.65h0c-7,.6-14.3,.7-21.9,.3h0c-1.2,0-2.2-.5-3-1.5-.8-1-1.2-2.1-1.2-3.3s.5-2.2,1.5-3,2.1-1.2,3.3-1.2h0c9,.6,17.4,.2,25.2-1.2h.3c.2-.4,.4-.8,.6-1.2h0c5-10.4,9.95-18.55,14.85-24.45,4.9-5.9,10.25-8.15,16.05-6.75h0c4.2,1.2,7.3,3.3,9.3,6.3,2,3,2.5,6.4,1.5,10.2h0c-1.6,5-5.4,9.6-11.4,13.8-6,4.2-13.6,7.4-22.8,9.6h0l-1.8,.6Zm5.1-10.8h0c6.4-2,11.5-4.5,15.3-7.5s6.1-5.7,6.9-8.1h0c.6-2.4-.9-4.1-4.5-5.1h0c-.8-.2-2.05,.35-3.75,1.65s-3.85,3.6-6.45,6.9-5.1,7.35-7.5,12.15Zm52.8,6.3h0c7.4-13.8,15.4-29.15,24-46.05,8.6-16.9,15.4-30.4,20.4-40.5,5-10.1,7.5-15.15,7.5-15.15h0c.4-1,1.25-1.7,2.55-2.1,1.3-.4,2.55-.3,3.75,.3h0c2.2,1.4,2.8,3.3,1.8,5.7h0c-17.4,43.2-31.9,81.1-43.5,113.7h0c-7.4,20.8-12,35.6-13.8,44.4h0c3.6-3.8,8.75-11.1,15.45-21.9,6.7-10.8,12.8-20.4,18.3-28.8,5.5-8.4,9.05-12.6,10.65-12.6h0c1.2,0,2.25,.45,3.15,1.35,.9,.9,1.35,1.95,1.35,3.15h0c0,.8-.1,1.5-.3,2.1h0c-.2,0-.4,.3-.6,.9h0c-22.6,41.6-39.2,64.4-49.8,68.4h0c-.8,.2-1.6,.3-2.4,.3h0c-3.6,.2-5.5-1.9-5.7-6.3h0c-.4-6,4.3-22.9,14.1-50.7h0c-1.6,.6-3.2,.3-4.8-.9h0c-1.4,2.6-3.45,6.4-6.15,11.4-2.7,5-4.8,8.85-6.3,11.55-1.5,2.7-3.35,6.05-5.55,10.05-2.2,4-4.1,7.05-5.7,9.15-1.6,2.1-3.3,4.25-5.1,6.45s-3.45,3.7-4.95,4.5c-1.5,.8-2.95,1.1-4.35,.9h0c-5.2-1-7-5.8-5.4-14.4h0c1.6-8.6,5.45-19.4,11.55-32.4,6.1-13,11.05-20.9,14.85-23.7h0c4.4-3.2,9.4-2.8,15,1.2Zm9,9.9h0c2.8-7.8,5.9-16.3,9.3-25.5h0c-4,7.8-7.9,15.2-11.7,22.2h0c1,1.2,1.8,2.3,2.4,3.3Zm-13.2-1.8h0c-2.6-2-4.4-2.7-5.4-2.1h0c-1.8,1.6-5.65,8.55-11.55,20.85-5.9,12.3-9.65,21.95-11.25,28.95h0c6-8.2,15.4-24.1,28.2-47.7Zm52.2-1.8h0c-3.4,.8-7.65,5-12.75,12.6-5.1,7.6-8.15,14.8-9.15,21.6h0c-1,6.4,.1,9.8,3.3,10.2h0c1,.2,2.1,.2,3.3,0h0c5.6-1.2,10.7-7.1,15.3-17.7,4.6-10.6,6.2-19.2,4.8-25.8h0c-1.8-.2-3.4-.5-4.8-.9Zm10.5-7.5h0c8.6,.8,17.4,.3,26.4-1.5h0c1.2-.4,2.35-.25,3.45,.45,1.1,.7,1.75,1.65,1.95,2.85,.2,1.2-.05,2.35-.75,3.45s-1.65,1.75-2.85,1.95h0c-8.2,1.8-16.4,2.5-24.6,2.1h0c.4,5.8-.4,12.5-2.4,20.1-2,7.6-5.45,14.6-10.35,21-4.9,6.4-10.55,9.9-16.95,10.5h0c-1.4,.2-2.8,.2-4.2,0h0c-4.8-.8-8.05-3.15-9.75-7.05-1.7-3.9-2.15-8.35-1.35-13.35h0c1.2-8.2,4.5-16.55,9.9-25.05,5.4-8.5,11.1-13.95,17.1-16.35h0c1.4-1.4,3.65-2.2,6.75-2.4,3.1-.2,5.65,.9,7.65,3.3Zm25.2-.9c1.2-.6,2.35-.65,3.45-.15,1.1,.5,1.95,1.3,2.55,2.4,.6,1.1,.6,2.25,0,3.45h0l-14.1,37.8c.6-.6,1.5-1.6,2.7-3h0c4.8-6.4,8.65-11.3,11.55-14.7,2.9-3.4,6.55-7.5,10.95-12.3,4.4-4.8,8.3-8.35,11.7-10.65,3.4-2.3,6.5-3.45,9.3-3.45h0c9.8,0,9,14.3-2.4,42.9h0c-3.4,8.6-5.2,13.3-5.4,14.1h0c3.4-3.6,8.2-10.35,14.4-20.25,6.2-9.9,11.8-18.5,16.8-25.8,5-7.3,8.4-10.95,10.2-10.95h0c1.2,0,2.25,.45,3.15,1.35,.9,.9,1.35,1.95,1.35,3.15h0c0,.8-.2,1.6-.6,2.4h0c-.2,0-.4,.3-.6,.9h0c-23.4,40.6-39.5,61.5-48.3,62.7h0c-2,.2-3.6-.35-4.8-1.65-1.2-1.3-1.9-2.65-2.1-4.05h0c-.4-4,2.15-13.3,7.65-27.9,5.5-14.6,8.45-23.6,8.85-27h0c-9.6,5.8-28.1,27.1-55.5,63.9h0c-1.2,1.8-2.8,2.4-4.8,1.8h0c-1.2-.4-2.1-1.15-2.7-2.25-.6-1.1-.7-2.35-.3-3.75h0l24.6-66.6c.4-1,1.2-1.8,2.4-2.4Zm235.05-82.5c-.5,1.2-1.35,2-2.55,2.4-1.2,.4-2.35,.35-3.45-.15-1.1-.5-1.85-1.35-2.25-2.55h0c-2-4.8-2.7-10.5-2.1-17.1h0c.4-6.8,2.25-12.8,5.55-18,3.3-5.2,8.05-7.5,14.25-6.9h0c1,0,2,.4,3,1.2h0c5,3.6,3.05,23.6-5.85,60-8.9,36.4-20.9,74.7-36,114.9-15.1,40.2-27.85,67.1-38.25,80.7h0c39.2-1.8,122.5-4.8,249.9-9h0c1.4,0,2.55,.4,3.45,1.2,.9,.8,1.35,1.85,1.35,3.15,0,1.3-.4,2.4-1.2,3.3-.8,.9-1.8,1.35-3,1.35h0c-141.4,4.8-227.5,7.9-258.3,9.3h0c-1.4,0-2.7,.1-3.9,.3h0c-1,.2-2,.3-3,.3h0c-2,2-4,1.2-6-2.4h0c-1-1.4-1.25-2.55-.75-3.45,.5-.9,1-1.6,1.5-2.1s1.35-.85,2.55-1.05c1.2-.2,2.05-.3,2.55-.3h1.05c.8-.4,1.6-.9,2.4-1.5h0c12-10.4,28.9-47.9,50.7-112.5h0c18.4-55,29.7-96.2,33.9-123.6h0c.6-4.6,.9-8.1,.9-10.5h0c-3.2,1-5.55,4.9-7.05,11.7-1.5,6.8-1.25,12.8,.75,18h0c.4,1,.35,2.1-.15,3.3Zm45.3,50.7c-1.1-.6-1.85-1.45-2.25-2.55-.4-1.1-.3-2.2,.3-3.3s1.5-1.85,2.7-2.25h0l5.1-1.5c1.2-.4,2.35-.3,3.45,.3s1.85,1.5,2.25,2.7c.4,1.2,.3,2.35-.3,3.45-.6,1.1-1.5,1.85-2.7,2.25h0l-5.1,1.5c-1.2,.2-2.35,0-3.45-.6Zm-10.35,31.95c1.2-.5,2.35-.55,3.45-.15,1.1,.4,1.9,1.2,2.4,2.4,.5,1.2,.55,2.4,.15,3.6h0c-11.8,28.8-19.5,50-23.1,63.6h0c4.2-4.8,10.65-13.3,19.35-25.5,8.7-12.2,16.4-22.75,23.1-31.65s10.95-13.35,12.75-13.35h0c1.2,0,2.25,.45,3.15,1.35s1.35,1.95,1.35,3.15h0c0,1-.3,1.9-.9,2.7h0s-.65,1-1.95,3c-1.3,2-2.95,4.45-4.95,7.35-2,2.9-4.4,6.35-7.2,10.35-2.8,4-5.7,8.05-8.7,12.15s-6.1,8.3-9.3,12.6-6.35,8.35-9.45,12.15c-3.1,3.8-6,7.2-8.7,10.2-2.7,3-5.2,5.4-7.5,7.2-2.3,1.8-4.05,2.8-5.25,3h0c-2,.2-3.5-.35-4.5-1.65s-1.6-2.55-1.8-3.75h0c-.8-7.8,7.6-33.3,25.2-76.5h0c.4-1,1.2-1.75,2.4-2.25Z"/></g></svg>