<svg width="150" height="113" viewBox="0 0 150 113" fill="none" xmlns="http://www.w3.org/2000/svg">
<g clip-path="url(#clip0_77_163)">
<path d="M22.5757 54.2139C22.4191 54.0575 22.3408 53.8749 22.3408 53.6663C22.3408 53.4577 22.4191 53.2752 22.5757 53.1187C22.7323 52.9622 22.915 52.884 23.1238 52.884H52.7201C52.9289 52.884 53.1116 52.9622 53.2682 53.1187C53.4248 53.2752 53.5031 53.4577 53.5031 53.6663C53.5031 53.8749 53.4248 54.0575 53.2682 54.2139C53.1116 54.3704 52.9289 54.4486 52.7201 54.4486H23.1238C22.915 54.4486 22.7323 54.3704 22.5757 54.2139ZM35.3382 40.002C35.025 40.4192 34.6596 40.4714 34.242 40.1585C33.8244 39.8455 33.7722 39.4805 34.0854 39.0632C34.329 38.7503 34.764 38.1245 35.3904 37.1857C36.0167 36.2469 36.6866 35.0387 37.4 33.561C38.1134 32.0833 38.3831 31.0663 38.2091 30.51C37.9655 29.8146 36.6431 29.8842 34.242 30.7186C31.9105 31.5531 29.3354 33.3089 26.5167 35.9862C23.698 38.6634 21.062 41.7752 18.6087 45.3217C16.1554 48.8682 13.9717 52.5015 12.0578 56.2219C10.1439 59.9422 8.76932 63.4712 7.93415 66.8091C7.09898 70.1469 7.01198 72.7372 7.67316 74.58C8.85631 77.7788 12.3536 78.3177 18.165 76.1968C20.4269 75.3623 22.6279 74.3019 24.768 73.0154C26.9082 71.7289 28.7786 70.4164 30.3793 69.0778C31.9801 67.7392 33.5286 66.2702 35.025 64.6708C36.5213 63.0714 37.7393 61.6719 38.6788 60.4724C39.6184 59.2729 40.4884 58.0559 41.2887 56.8216C42.0891 55.5873 42.6111 54.7529 42.8547 54.3182C43.0983 53.8836 43.2897 53.5446 43.4289 53.3012C43.4985 53.1274 43.6377 53.0057 43.8465 52.9362C44.0552 52.8666 44.264 52.884 44.4728 52.9883C44.8904 53.1969 45.0122 53.5272 44.8382 53.9792C43.0983 57.3519 40.5928 60.8635 37.3217 64.5143C31.7191 70.8075 25.5075 75.1885 18.687 77.6571C15.2419 78.874 12.4841 79.2565 10.4136 78.8045C8.34303 78.3525 6.94238 77.1182 6.21161 75.1015C5.68963 73.7803 5.53303 72.1549 5.74183 70.2252C5.95062 68.2955 6.3769 66.218 7.02068 63.9928C7.66446 61.7675 8.57792 59.438 9.76108 57.0042C10.9442 54.5703 12.2318 52.1712 13.6237 49.8069C15.0157 47.4426 16.5642 45.1392 18.2694 42.8965C19.9745 40.6539 21.6797 38.6286 23.3848 36.8206C25.0899 35.0126 26.8473 33.4393 28.6568 32.1007C30.4663 30.7621 32.1541 29.8146 33.72 29.2583C37.0955 28.0414 39.079 28.2848 39.6706 29.9885C39.8794 30.6143 39.8794 31.3879 39.6706 32.3093C39.4618 33.2307 39.1225 34.126 38.6527 34.9952C38.183 35.8645 37.6958 36.6815 37.1912 37.4465C36.6866 38.2114 36.2603 38.8372 35.9123 39.324L35.3382 40.002ZM53.0333 54.5008C52.4417 54.6399 51.7023 55.37 50.8149 56.6912C49.9275 58.0125 49.3969 59.2642 49.2229 60.4463C49.0489 61.5589 49.2403 62.15 49.797 62.2195C49.971 62.2543 50.1624 62.2543 50.3712 62.2195C51.3456 62.0109 52.233 60.9852 53.0333 59.1425C53.8337 57.2997 54.1121 55.8046 53.8685 54.6572C53.5553 54.6225 53.2769 54.5703 53.0333 54.5008ZM54.8603 53.1969C56.3566 53.336 57.8878 53.2491 59.4537 52.9362C59.6625 52.8666 59.8626 52.8927 60.054 53.0144C60.2454 53.1361 60.3585 53.3012 60.3933 53.5099C60.4281 53.7185 60.3846 53.9184 60.2628 54.1096C60.141 54.3009 59.9757 54.4139 59.7669 54.4486C58.3401 54.7615 56.9134 54.8832 55.4866 54.8137C55.5562 55.822 55.417 56.9868 55.0691 58.308C54.7211 59.6292 54.1208 60.8462 53.2682 61.9588C52.4156 63.0714 51.4326 63.6799 50.319 63.7842C50.0754 63.8189 49.8318 63.8189 49.5883 63.7842C48.7531 63.6451 48.1876 63.2365 47.8918 62.5585C47.596 61.8805 47.5177 61.1069 47.6569 60.2377C47.8657 58.8122 48.4399 57.3605 49.3795 55.8829C50.319 54.4052 51.3108 53.4577 52.3548 53.0405C52.5983 52.7971 52.9898 52.658 53.5292 52.6232C54.0686 52.5885 54.5123 52.7797 54.8603 53.1969ZM65.1955 54.1879C65.1955 54.2226 65.1955 54.24 65.1955 54.24C64.2907 56.3262 63.5252 58.5514 62.8988 60.9157C62.2724 63.28 61.9766 64.9142 62.0114 65.8182C62.8466 65.3314 64.1428 64.0362 65.9002 61.9327C67.6575 59.8292 69.2234 57.8647 70.598 56.0393C71.9725 54.2139 72.6598 53.2839 72.6598 53.2491C72.799 53.0057 73.0078 52.884 73.2862 52.884C73.495 52.884 73.6777 52.9622 73.8343 53.1187C73.9909 53.2752 74.0692 53.4577 74.0692 53.6663C74.0692 53.9097 73.2688 55.1614 71.6681 57.4214C70.0673 59.6814 68.2404 61.9414 66.1873 64.2014C64.1341 66.4614 62.6378 67.574 61.6982 67.5392C60.8282 67.5045 60.4107 66.7917 60.4455 65.4009C60.4803 64.184 60.776 62.5585 61.3328 60.5245C61.8896 58.4905 62.5682 56.4826 63.3686 54.5008C62.1506 54.6051 60.8804 54.6225 59.5581 54.5529C59.3493 54.5529 59.1753 54.466 59.0361 54.2922C58.8969 54.1183 58.8273 53.9271 58.8273 53.7185C58.8273 53.5099 58.9143 53.336 59.0883 53.1969C59.2623 53.0579 59.4537 52.9883 59.6625 52.9883C61.2284 53.0926 62.69 53.0231 64.0471 52.7797C64.0819 52.7797 64.0993 52.7797 64.0993 52.7797C64.1341 52.7102 64.1689 52.6406 64.2037 52.5711C65.0737 50.7631 65.935 49.3462 66.7875 48.3205C67.6401 47.2949 68.571 46.9037 69.5801 47.1471C70.3109 47.3557 70.8503 47.7208 71.1983 48.2423C71.5463 48.7639 71.6333 49.3549 71.4593 50.0155C71.1809 50.8848 70.5197 51.6845 69.4757 52.4146C68.4318 53.1448 67.1094 53.7011 65.5087 54.0835C65.4043 54.1183 65.2999 54.1531 65.1955 54.1879ZM66.0829 52.3103C67.1964 51.9626 68.0838 51.528 68.745 51.0065C69.4061 50.4849 69.8063 50.0155 69.9455 49.5983C70.0499 49.1811 69.7889 48.8855 69.1625 48.7117C69.0234 48.6769 68.8059 48.7725 68.5101 48.9985C68.2143 49.2245 67.8402 49.6244 67.3878 50.1981C66.9354 50.7718 66.5004 51.4759 66.0829 52.3103ZM75.2697 53.4055C76.5573 51.0065 77.9492 48.3379 79.4456 45.3999C80.9419 42.4619 82.1251 40.115 82.9951 38.3592C83.865 36.6033 84.3 35.7254 84.3 35.7254C84.3696 35.5515 84.5175 35.4299 84.7437 35.3603C84.9699 35.2908 85.1874 35.3082 85.3962 35.4125C85.7789 35.6559 85.8833 35.9862 85.7094 36.4034C82.6819 43.9135 80.159 50.5023 78.1406 56.1697C76.8531 59.7857 76.0527 62.3586 75.7395 63.8885C76.3659 63.2279 77.262 61.9588 78.4277 60.0812C79.5935 58.2037 80.6548 56.5348 81.6118 55.0745C82.5688 53.6142 83.1864 52.884 83.4648 52.884C83.6736 52.884 83.8563 52.9622 84.0129 53.1187C84.1695 53.2752 84.2478 53.4577 84.2478 53.6663C84.2478 53.8054 84.2304 53.9271 84.1956 54.0314C84.1608 54.0314 84.126 54.0835 84.0912 54.1879C80.159 61.4199 77.2707 65.3835 75.4263 66.0789C75.2871 66.1137 75.1479 66.1311 75.0087 66.1311C74.3824 66.1659 74.0518 65.8008 74.017 65.0359C73.9474 63.9928 74.7651 61.0548 76.4703 56.2219C76.1919 56.3262 75.9135 56.274 75.6351 56.0654C75.3915 56.5174 75.0348 57.178 74.5651 58.0472C74.0953 58.9165 73.7299 59.5858 73.4689 60.0552C73.2079 60.5245 72.886 61.1069 72.5032 61.8023C72.1204 62.4977 71.7899 63.0279 71.5115 63.393C71.2331 63.7581 70.9373 64.1319 70.6241 64.5143C70.3109 64.8968 70.0238 65.1575 69.7628 65.2966C69.5018 65.4357 69.2495 65.4879 69.006 65.4531C68.1012 65.2792 67.788 64.4448 68.0664 62.9497C68.3448 61.4546 69.0147 59.5771 70.076 57.3171C71.1374 55.0571 71.9986 53.6837 72.6598 53.1969C73.4254 52.6406 74.2954 52.7102 75.2697 53.4055ZM76.8357 55.1266C77.3229 53.7706 77.8622 52.2929 78.4538 50.6935C77.7578 52.0495 77.0793 53.336 76.4181 54.5529C76.5921 54.7615 76.7313 54.9528 76.8357 55.1266ZM74.539 54.8137C74.0866 54.466 73.7734 54.3443 73.5994 54.4486C73.2862 54.7268 72.6163 55.935 71.5898 58.0733C70.5632 60.2116 69.9107 61.8892 69.6323 63.1062C70.6763 61.6806 72.3118 58.9165 74.539 54.8137ZM83.6214 54.5008C83.0299 54.6399 82.2904 55.37 81.403 56.6912C80.5156 58.0125 79.985 59.2642 79.811 60.4463C79.637 61.5589 79.8284 62.15 80.3851 62.2195C80.5591 62.2543 80.7505 62.2543 80.9593 62.2195C81.9337 62.0109 82.8211 60.9852 83.6214 59.1425C84.4218 57.2997 84.7002 55.8046 84.4566 54.6572C84.1434 54.6225 83.865 54.5703 83.6214 54.5008ZM85.4484 53.1969C86.9447 53.336 88.4759 53.2491 90.0418 52.9362C90.2506 52.8666 90.4507 52.8927 90.6421 53.0144C90.8335 53.1361 90.9466 53.3012 90.9814 53.5099C91.0162 53.7185 90.9727 53.9184 90.8509 54.1096C90.7291 54.3009 90.5638 54.4139 90.355 54.4486C88.9282 54.7615 87.5015 54.8832 86.0747 54.8137C86.1443 55.822 86.0051 56.9868 85.6572 58.308C85.3092 59.6292 84.7089 60.8462 83.8563 61.9588C83.0038 63.0714 82.0207 63.6799 80.9071 63.7842C80.6635 63.8189 80.4199 63.8189 80.1764 63.7842C79.3412 63.6451 78.7757 63.2365 78.4799 62.5585C78.1841 61.8805 78.1058 61.1069 78.245 60.2377C78.4538 58.8122 79.028 57.3605 79.9676 55.8829C80.9071 54.4052 81.8989 53.4577 82.9429 53.0405C83.1864 52.7971 83.5779 52.658 84.1173 52.6232C84.6567 52.5885 85.1004 52.7797 85.4484 53.1969ZM89.833 53.0405C90.0418 52.9362 90.2419 52.9275 90.4333 53.0144C90.6247 53.1013 90.7726 53.2404 90.877 53.4316C90.9814 53.6229 90.9814 53.8228 90.877 54.0314L88.4237 60.6028C88.5281 60.4985 88.6846 60.3246 88.8934 60.0812C89.7286 58.9686 90.3985 58.1168 90.9031 57.5257C91.4077 56.9346 92.0427 56.2219 92.8083 55.3874C93.5739 54.5529 94.2525 53.9358 94.844 53.5359C95.4356 53.1361 95.975 52.9362 96.4622 52.9362C98.1673 52.9362 98.0281 55.4222 96.0446 60.3942C95.453 61.8892 95.1398 62.7063 95.105 62.8454C95.6966 62.2195 96.5318 61.0461 97.6105 59.325C98.6893 57.6039 99.6637 56.1089 100.534 54.8398C101.404 53.5707 101.995 52.9362 102.308 52.9362C102.517 52.9362 102.7 53.0144 102.856 53.1709C103.013 53.3273 103.091 53.5099 103.091 53.7185C103.091 53.8575 103.057 53.9966 102.987 54.1357C102.952 54.1357 102.917 54.1879 102.883 54.2922C98.8111 61.3503 96.0098 64.9837 94.4786 65.1923C94.1307 65.2271 93.8523 65.1315 93.6435 64.9055C93.4347 64.6795 93.3129 64.4448 93.2781 64.2014C93.2085 63.506 93.6522 61.8892 94.6091 59.3511C95.5661 56.8129 96.0794 55.2483 96.149 54.6572C94.4786 55.6655 91.2598 59.3685 86.4923 65.766C86.2835 66.0789 86.0051 66.1832 85.6572 66.0789C85.4484 66.0094 85.2918 65.879 85.1874 65.6878C85.083 65.4965 85.0656 65.2792 85.1352 65.0359L89.4154 53.4577C89.485 53.2839 89.6242 53.1448 89.833 53.0405ZM130.73 38.6982C130.643 38.9068 130.495 39.0459 130.287 39.1154C130.078 39.1849 129.878 39.1762 129.686 39.0893C129.495 39.0024 129.364 38.8546 129.295 38.646C128.947 37.8115 128.825 36.8206 128.929 35.6732C128.999 34.4911 129.321 33.448 129.895 32.544C130.469 31.64 131.296 31.2402 132.374 31.3445C132.548 31.3445 132.722 31.414 132.896 31.5531C133.766 32.1789 133.427 35.6559 131.879 41.9839C130.33 48.3119 128.242 54.9702 125.615 61.9588C122.988 68.9474 120.769 73.6239 118.96 75.9882C125.78 75.6752 140.274 75.1537 162.441 74.4235C162.684 74.4235 162.884 74.4931 163.041 74.6322C163.197 74.7712 163.276 74.9538 163.276 75.1798C163.276 75.4058 163.206 75.597 163.067 75.7535C162.928 75.9099 162.754 75.9882 162.545 75.9882C137.942 76.8226 122.961 77.3615 117.602 77.6049C117.359 77.6049 117.133 77.6223 116.924 77.6571C116.75 77.6919 116.576 77.7092 116.402 77.7092C116.054 78.0569 115.706 77.9179 115.358 77.292C115.184 77.0486 115.14 76.8487 115.227 76.6922C115.314 76.5358 115.401 76.4141 115.488 76.3272C115.575 76.2402 115.723 76.1794 115.932 76.1446C116.141 76.1099 116.289 76.0925 116.376 76.0925C116.463 76.0925 116.524 76.0925 116.558 76.0925C116.698 76.0229 116.837 75.936 116.976 75.8317C119.064 74.0237 122.004 67.5045 125.798 56.274C128.999 46.7125 130.965 39.55 131.696 34.7866C131.8 33.9869 131.852 33.3785 131.852 32.9612C131.296 33.1351 130.887 33.8131 130.626 34.9952C130.365 36.1774 130.408 37.2205 130.756 38.1245C130.826 38.2983 130.817 38.4895 130.73 38.6982ZM138.612 47.5122C138.421 47.4079 138.29 47.2601 138.221 47.0689C138.151 46.8776 138.168 46.6864 138.273 46.4952C138.377 46.3039 138.534 46.1735 138.743 46.104L139.63 45.8432C139.839 45.7737 140.039 45.7911 140.23 45.8954C140.422 45.9997 140.552 46.1562 140.622 46.3648C140.691 46.5734 140.674 46.7733 140.57 46.9645C140.465 47.1558 140.309 47.2862 140.1 47.3557L139.212 47.6165C139.004 47.6512 138.804 47.6165 138.612 47.5122ZM136.811 53.0665C137.02 52.9796 137.22 52.9709 137.412 53.0405C137.603 53.11 137.742 53.2491 137.829 53.4577C137.916 53.6663 137.925 53.8749 137.855 54.0835C135.802 59.0903 134.462 62.7759 133.836 65.1402C134.567 64.3057 135.689 62.828 137.203 60.7071C138.717 58.5862 140.056 56.7521 141.222 55.2049C142.388 53.6576 143.127 52.884 143.44 52.884C143.649 52.884 143.832 52.9622 143.989 53.1187C144.145 53.2752 144.223 53.4577 144.223 53.6663C144.223 53.8402 144.171 53.9966 144.067 54.1357C144.067 54.1357 143.954 54.3095 143.728 54.6572C143.501 55.0049 143.214 55.4309 142.866 55.935C142.518 56.4392 142.101 57.0389 141.614 57.7343C141.126 58.4297 140.622 59.1338 140.1 59.8465C139.578 60.5593 139.038 61.2895 138.482 62.037C137.925 62.7845 137.377 63.4886 136.837 64.1492C136.298 64.8099 135.793 65.4009 135.324 65.9225C134.854 66.444 134.419 66.8612 134.019 67.1742C133.619 67.4871 133.314 67.6609 133.105 67.6957C132.757 67.7305 132.496 67.6349 132.322 67.4089C132.148 67.1829 132.044 66.9655 132.009 66.7569C131.87 65.4009 133.331 60.9679 136.394 53.4577C136.463 53.2839 136.603 53.1535 136.811 53.0665Z" fill="#717171" stroke="#717171"/>
</g>
<defs>
<clipPath id="clip0_77_163">
<rect width="150" height="113" fill="white"/>
</clipPath>
</defs>
</svg>
